<?xml version="1.0" encoding="utf-8"?>
<!-- Generator: Adobe Illustrator 16.0.0, SVG Export Plug-In . SVG Version: 6.00 Build 0)  -->
<!DOCTYPE svg PUBLIC "-//W3C//DTD SVG 1.1//EN" "http://www.w3.org/Graphics/SVG/1.1/DTD/svg11.dtd">
<svg version="1.1" id="Слой_1" xmlns="http://www.w3.org/2000/svg" xmlns:xlink="http://www.w3.org/1999/xlink" x="0px" y="0px"
	 width="270px" height="85px" viewBox="0 0 270 85" enable-background="new 0 0 270 85" xml:space="preserve">
<g>
	<path fill-rule="evenodd" clip-rule="evenodd" fill="#76B843" d="M241.333,73.361l-3.968-6.699l-1.143,0.643l-5.594,3.314
		c-0.619,0.365-0.829,1.173-0.46,1.793l3.312,5.596c0.365,0.622,1.175,0.829,1.799,0.461l5.594-3.312
		C241.491,74.788,241.7,73.981,241.333,73.361L241.333,73.361z"/>
	<path fill-rule="evenodd" clip-rule="evenodd" fill="#E01E26" d="M232.768,58.891l3.967,6.702l-1.117,0.688l-5.597,3.313
		c-0.621,0.365-1.424,0.16-1.793-0.461l-3.315-5.594c-0.364-0.621-0.158-1.43,0.462-1.796l5.601-3.313
		C231.593,58.063,232.398,58.271,232.768,58.891L232.768,58.891z"/>
	<path fill-rule="evenodd" clip-rule="evenodd" fill="#F8B916" d="M234.721,59.014l3.088,5.216l0.886-0.503l4.358-2.576
		c0.479-0.287,0.644-0.916,0.356-1.397l-2.577-4.355c-0.285-0.483-0.918-0.645-1.397-0.358l-4.355,2.578
		C234.598,57.902,234.436,58.531,234.721,59.014L234.721,59.014z"/>
	<path fill-rule="evenodd" clip-rule="evenodd" fill="#4B86C6" d="M241.988,72.831L238.1,66.26l1.093-0.68l5.489-3.249
		c0.606-0.36,1.402-0.157,1.765,0.452l3.249,5.488c0.358,0.609,0.154,1.402-0.454,1.762l-5.488,3.248
		C243.142,73.643,242.35,73.438,241.988,72.831L241.988,72.831z"/>
</g>
<g>
	<path fill-rule="evenodd" clip-rule="evenodd" fill="#010101" d="M129.469,35.993c-0.087,0.513-0.157,0.81-0.216,0.886
		c-0.17,0.232-0.525,0.347-1.067,0.347c-0.683,0-1.281-0.36-1.793-1.08c-0.341-0.488-0.739-1.308-1.194-2.465
		c-0.172-0.434-0.301-0.744-0.385-0.924c-0.398-0.822-0.613-1.271-0.642-1.349c-2.334,0.643-3.671,1.001-4.013,1.078
		c-1.566,0.335-3.246,0.503-5.039,0.503c-0.256,1.281-0.398,2.052-0.428,2.31c-0.169,1.079-0.256,2.029-0.256,2.849
		c0,0.334-0.171,0.584-0.514,0.751c-0.34,0.167-0.768,0.25-1.279,0.25c-0.456,0-0.777-0.173-0.962-0.521
		c-0.185-0.346-0.276-0.814-0.276-1.404c0-0.437,0.598-2.709,1.793-6.817c1.311-4.493,2.578-8.423,3.801-11.783
		c0.625-1.772,1.338-3.583,2.137-5.431c0.653-1.491,1.207-2.234,1.664-2.234c0.312,0,0.575,0.229,0.79,0.693
		c0.214,0.462,0.446,1.153,0.702,2.078c0.828,2.953,1.651,5.906,2.477,8.859c1.027,2.771,2.051,5.545,3.076,8.319
		C128.983,33.964,129.524,35.658,129.469,35.993L129.469,35.993z M123.06,28.02c-0.623-2.285-1.234-4.403-1.834-6.354
		c-0.342-1.104-0.725-2.284-1.152-3.543c-0.199,0.642-0.713,2.08-1.537,4.315c-1.48,4.054-2.42,6.777-2.818,8.164
		c1.594-0.181,3.017-0.527,4.27-1.04C120.302,29.431,121.326,28.918,123.06,28.02L123.06,28.02z"/>
	<path fill-rule="evenodd" clip-rule="evenodd" fill="#010101" d="M143.439,23.181c0,1.024-0.938,2.563-2.815,4.612
		c-1.054,1.139-2.108,2.263-3.159,3.373c2.558,1.622,4.504,2.86,5.827,3.713c1.32,0.856,1.982,1.455,1.982,1.795
		c0,0.513-0.076,0.862-0.231,1.047c-0.156,0.186-0.549,0.279-1.176,0.279c-0.599,0-1.864-0.542-3.801-1.624
		c-1.935-1.084-3.43-2.049-4.482-2.903l-1.195,1.451c0,1.337-0.071,2.186-0.215,2.542C134.032,37.821,133.69,38,133.15,38
		c-0.939,0-1.409-0.344-1.409-1.026l-0.258-3.501c0-1.568-0.1-3.154-0.296-4.762c-0.2-1.608-0.415-3.293-0.643-5.06
		c0-0.683,0.148-1.218,0.448-1.603c0.3-0.383,0.619-0.577,0.962-0.577c0.396,0,0.755,0.173,1.065,0.514
		c0.314,0.342,0.472,0.74,0.472,1.196c0,0.626,0.056,1.424,0.171,2.392c0.285,2.391,0.426,4.013,0.426,4.868
		c2.391-2.619,4.254-4.627,5.592-6.021c1.455-1.51,2.31-2.265,2.563-2.265c0.484,0,0.804,0.063,0.962,0.193
		C143.363,22.475,143.439,22.754,143.439,23.181L143.439,23.181z"/>
	<path fill-rule="evenodd" clip-rule="evenodd" fill="#010101" d="M161.215,36.545c0,0.54-0.177,1.019-0.531,1.431
		c-0.358,0.412-0.724,0.62-1.091,0.62c-0.742,0-1.424-0.897-2.05-2.69c-0.396-1.168-0.769-2.662-1.109-4.484
		c-0.914,1.396-2.078,2.732-3.502,4.014c-1.711,1.508-3.101,2.264-4.184,2.264c-0.799,0-1.482-0.343-2.052-1.025
		c-0.571-0.683-0.854-1.452-0.854-2.305c0-2.077,1.226-5.096,3.673-9.051c2.561-4.158,4.697-6.236,6.405-6.236
		c0.372,0,0.678,0.087,0.916,0.256c0.244,0.171,0.363,0.457,0.363,0.854c0,0.456-0.454,1.139-1.367,2.05
		c-1.536,1.537-2.502,2.562-2.9,3.076c-0.938,1.165-1.86,2.689-2.755,4.567c-0.896,1.879-1.346,3.09-1.346,3.628
		c0,0.342,0.036,0.571,0.107,0.685c0.067,0.113,0.262,0.171,0.576,0.171c0.679,0,1.898-0.919,3.651-2.754
		c1.752-1.838,2.626-2.967,2.626-3.394c0-0.485,0.202-0.854,0.62-1.11c0.409-0.256,0.771-0.385,1.088-0.385
		c0.255,0,0.54,0.122,0.854,0.362c0.314,0.243,0.511,0.584,0.597,1.026c0.083,0.442,0.236,1.119,0.447,2.029
		c0.213,0.91,0.407,1.659,0.576,2.242c0.173,0.583,0.456,1.485,0.856,2.711C161.086,35.864,161.215,36.347,161.215,36.545
		L161.215,36.545z"/>
	<path fill-rule="evenodd" clip-rule="evenodd" fill="#010101" d="M177.577,22.069c0,0.428-0.139,0.706-0.424,0.833
		c-0.288,0.129-0.713,0.192-1.282,0.192h-0.686c-0.967,0-2.673,1.409-5.124,4.227c-2.533,2.934-3.797,5.11-3.797,6.533
		c0.055,0.627,0.114,1.018,0.169,1.175c0.055,0.157,0.27,0.236,0.642,0.236c0.513,0,1.438-0.612,2.777-1.838
		c1.336-1.223,2.475-2.447,3.414-3.67c0.428-0.541,0.755-1.268,0.982-2.179c0.142-0.513,0.458-0.769,0.937-0.769
		c0.602,0,1.013,0.129,1.24,0.385s0.342,0.569,0.342,0.939c0,0.113-0.015,0.284-0.042,0.513c-0.028,0.227-0.045,0.369-0.045,0.428
		l1.025,9.479c0.229,2.078,0.407,3.757,0.535,5.039c0.127,1.281,0.19,2.562,0.19,3.842c0,0.598,0.015,1.203,0.045,1.815
		c0.031,0.612,0.059,1.218,0.084,1.815c0,0.939-0.078,1.65-0.234,2.136c-0.155,0.482-0.462,0.726-0.92,0.726
		c-0.825,0-1.447-0.093-1.877-0.279c-0.426-0.183-0.854-0.576-1.28-1.174c-0.996-1.395-1.992-2.775-2.991-4.143
		c-0.736-1.055-1.451-2.177-2.133-3.372c-0.482-0.796-0.951-1.581-1.413-2.349c-0.254-0.484-0.38-0.84-0.38-1.067
		c0-0.37,0.065-0.62,0.192-0.747c0.128-0.129,0.375-0.192,0.746-0.192c0.429,0,1.169,0.627,2.219,1.88
		c0.112,0.141,1.838,2.418,5.168,6.831c-0.143-0.94-0.306-2.207-0.492-3.802c-0.187-1.593-0.332-3.06-0.448-4.397
		c0-1.367-0.126-2.946-0.384-4.739c-0.255-1.794-0.381-2.903-0.381-3.332c-1.001,1.31-2.182,2.493-3.549,3.545
		c-1.619,1.25-2.974,1.877-4.054,1.877c-0.998,0-1.764-0.311-2.306-0.939c-0.622-0.711-0.941-1.793-0.941-3.246
		c0-2.478,1.595-5.45,4.782-8.925c3.048-3.328,5.44-4.995,7.175-4.995c0.571,0,1.052,0.085,1.455,0.256
		C177.219,20.903,177.577,21.388,177.577,22.069L177.577,22.069z"/>
	<path fill-rule="evenodd" clip-rule="evenodd" fill="#010101" d="M195.438,33.216c-0.06,0.541-1.13,1.662-3.214,3.373
		c-2.324,1.907-4.163,2.858-5.523,2.858c-2.776,0-4.164-1.365-4.164-4.095c0-0.771,0.244-1.653,0.725-2.649
		c0.184-0.372,0.589-1.068,1.224-2.091c-0.335,0.143-0.67,0.211-0.997,0.211c-0.211,0-0.509-0.035-0.882-0.106
		c-0.378-0.071-0.671-0.105-0.882-0.105c-0.969,0-1.702-0.244-2.198-0.727c-0.499-0.485-0.747-1.08-0.747-1.793
		c0-0.941,1.19-2.548,3.578-4.826c2.686-2.562,5.05-3.842,7.104-3.842c0.274,0,0.487,0.106,0.655,0.32
		c0.169,0.213,0.222,0.448,0.159,0.704c-0.027,0.314-1.013,1.139-2.938,2.478c-1.209,0.853-2.009,1.443-2.4,1.77
		c-0.395,0.328-0.795,0.784-1.201,1.368c-0.411,0.583-0.611,0.987-0.611,1.218c0,0.085,0.029,0.162,0.089,0.233
		c0.063,0.071,0.105,0.124,0.137,0.15c0.574,0,1.789-0.375,3.645-1.131c1.857-0.754,2.814-1.132,2.874-1.132
		c0.215,0.03,0.407,0.143,0.587,0.343c0.183,0.199,0.261,0.412,0.229,0.639c0,0.627-0.194,1.311-0.588,2.049
		c-0.181,0.342-0.598,0.968-1.245,1.88c-0.65,0.912-1.255,1.764-1.813,2.563c-0.556,0.797-0.836,1.522-0.836,2.176
		c0,0.315,0.133,0.579,0.386,0.791c0.257,0.212,0.565,0.321,0.929,0.321c0.632,0,1.539-0.398,2.717-1.197
		c1.295-0.91,2.608-1.821,3.938-2.731c0.391,0,0.7,0.092,0.924,0.277C195.326,32.695,195.438,32.931,195.438,33.216L195.438,33.216z
		"/>
	<path fill-rule="evenodd" clip-rule="evenodd" fill="#010101" d="M217.14,35.819c0,0.399-0.127,0.754-0.383,1.068
		c-0.257,0.312-0.611,0.469-1.068,0.469c-0.627,0-1.235-0.455-1.836-1.366c-0.341-0.54-0.896-1.594-1.662-3.161
		c-0.146-0.282-0.5-1.182-1.069-2.688c-0.743-1.937-1.112-2.918-1.112-2.947c-0.733,2.534-1.608,4.796-2.601,6.79
		c-0.857,1.736-1.567,2.605-2.137,2.605c-0.77,0-1.696-1.21-2.777-3.63c-0.827-1.879-1.494-3.798-2.008-5.764
		c-0.625,2.761-1.152,4.925-1.574,6.49c-0.8,2.962-1.555,4.441-2.268,4.441c-0.452,0-0.838-0.207-1.153-0.621
		c-0.311-0.412-0.475-0.887-0.475-1.429c0-0.599,0.383-2.113,1.138-4.547c0.75-2.434,1.487-4.504,2.198-6.212
		c0.313-0.828,0.625-1.667,0.938-2.521c0.481-1.053,0.998-1.58,1.537-1.58c0.341,0,0.699,0.441,1.07,1.325
		c0.226,0.654,0.459,1.302,0.705,1.943c0.238,0.64,0.719,2.085,1.43,4.334c0.597,1.905,1.009,3.101,1.238,3.585
		c0.65-1.851,1.215-3.451,1.684-4.803c0.475-1.353,0.833-2.362,1.092-3.033c0.254-0.667,0.5-1.303,0.727-1.9
		c0.424-0.969,0.839-1.452,1.235-1.452c0.712,0,1.54,1.224,2.479,3.673c0.684,1.849,1.382,3.699,2.089,5.551
		c0.573,1.081,1.144,2.162,1.713,3.244C216.858,34.767,217.14,35.477,217.14,35.819L217.14,35.819z"/>
	<path fill-rule="evenodd" clip-rule="evenodd" fill="#010101" d="M234.919,36.333c-0.146,0.938-0.673,1.411-1.582,1.411
		c-0.684,0-1.249-0.286-1.688-0.856c-0.441-0.571-0.757-1.195-0.943-1.878c-0.179-0.683-0.305-1.141-0.358-1.368
		c-0.169-0.652-0.257-1.395-0.257-2.22c-0.998,1.31-2.036,2.447-3.122,3.417c-1.704,1.509-3.227,2.263-4.567,2.263
		c-1.246,0-2.09-1.393-2.517-4.187c-0.226-1.477-0.344-3.753-0.344-6.83c0-1.366,0.123-2.383,0.365-3.053
		c0.243-0.67,0.764-1.002,1.558-1.002c0.514,0,0.848,0.276,1.005,0.833c0.155,0.554,0.233,1.429,0.233,2.624
		c0,1.964,0.079,3.746,0.235,5.337c0.158,1.595,0.436,2.394,0.833,2.394c0.481,0,1.136-0.398,1.964-1.196
		c0.712-0.684,1.438-1.538,2.177-2.563c0.374-0.54,0.855-1.819,1.451-3.842c0.427-1.51,0.985-2.262,1.667-2.262
		c0.711,0,1.196,0.261,1.449,0.789c0.257,0.527,0.442,1.402,0.559,2.626c0,1.026,0,2.051,0,3.075c0.054,1.223,0.2,2.362,0.423,3.416
		c0.119,0.541,0.396,1.11,0.833,1.707C234.739,35.562,234.946,36.02,234.919,36.333L234.919,36.333z"/>
	<path fill-rule="evenodd" clip-rule="evenodd" fill="#010101" d="M247.608,35.927c0.058,0.248,0.084,0.466,0.084,0.659
		c0,0.385-0.09,0.714-0.283,0.989c-0.187,0.274-0.383,0.412-0.587,0.412c-0.306,0-0.548-0.164-0.734-0.494
		c-0.188-0.332-0.378-0.851-0.566-1.566c-0.075-0.356-0.302-1.195-0.676-2.51c-0.243-0.88-0.365-1.513-0.365-1.896
		c-0.679,1.292-1.515,2.513-2.51,3.666c-1.186,1.372-2.131,2.058-2.848,2.058c-1.125,0-1.688-0.547-1.688-1.646
		c0-0.274,0.18-0.55,0.548-0.822c0.365-0.275,0.788-0.496,1.266-0.66c0.479-0.164,0.999-0.59,1.567-1.276
		c0.279-0.33,0.796-1.03,1.55-2.101c-0.378,0.166-0.706,0.276-0.986,0.329c-0.284,0.056-0.574,0.083-0.871,0.083
		c-0.7,0-1.27-0.349-1.709-1.047c-0.441-0.702-0.661-1.614-0.661-2.74c0-2.032,0.957-3.871,2.876-5.518
		c1.595-1.374,2.882-2.06,3.86-2.06c0.376,0,0.696,0.082,0.96,0.246c0.471,0.276,0.702,0.741,0.702,1.402
		c0,0.412-0.102,0.68-0.31,0.802c-0.207,0.125-0.487,0.185-0.847,0.185h-0.447c-0.47,0-1.335,0.508-2.594,1.525
		c-1.486,1.208-2.229,2.347-2.229,3.417c0,0.548,0.116,0.876,0.352,0.989c0.238,0.109,0.623,0.164,1.171,0.164
		c0.338,0,0.739-0.11,1.198-0.33c0.458-0.219,0.853-0.495,1.17-0.823c0.205-1.427,0.338-2.265,0.396-2.513
		c0.206-0.769,0.485-1.153,0.844-1.153c0.584,0,0.959,0.344,1.128,1.03c0.078,0.301,0.112,0.823,0.112,1.565
		c0,0.768,0.109,2.265,0.326,4.489C247.022,33.003,247.29,34.719,247.608,35.927L247.608,35.927z"/>
	<path fill-rule="evenodd" clip-rule="evenodd" fill="#010101" d="M136.061,76.26c0,0.682-0.224,1.283-0.672,1.803
		c-0.449,0.522-0.907,0.783-1.374,0.783c-0.934,0-1.795-1.133-2.583-3.393c-0.503-1.473-0.97-3.357-1.401-5.654
		c-1.148,1.759-2.621,3.444-4.414,5.063c-2.153,1.901-3.914,2.852-5.279,2.852c-1.004,0-1.866-0.43-2.583-1.293
		c-0.719-0.861-1.076-1.83-1.076-2.908c0-2.619,1.542-6.423,4.629-11.412c3.231-5.242,5.925-7.863,8.078-7.863
		c0.465,0,0.852,0.107,1.157,0.324c0.307,0.215,0.459,0.575,0.459,1.076c0,0.575-0.574,1.437-1.725,2.586
		c-1.938,1.938-3.158,3.229-3.66,3.877c-1.186,1.471-2.343,3.391-3.473,5.76c-1.131,2.369-1.699,3.895-1.699,4.577
		c0,0.43,0.047,0.72,0.137,0.862c0.09,0.142,0.334,0.213,0.726,0.213c0.863,0,2.399-1.155,4.606-3.473
		c2.206-2.314,3.309-3.742,3.309-4.279c0-0.609,0.263-1.076,0.783-1.4c0.52-0.322,0.977-0.484,1.371-0.484
		c0.326,0,0.682,0.152,1.078,0.459c0.393,0.305,0.645,0.734,0.756,1.291c0.106,0.557,0.293,1.41,0.562,2.556
		c0.271,1.151,0.513,2.094,0.73,2.831c0.212,0.734,0.573,1.874,1.075,3.418C135.899,75.396,136.061,76.009,136.061,76.26
		L136.061,76.26z"/>
	<path fill-rule="evenodd" clip-rule="evenodd" fill="#010101" d="M156.809,75.236c0,0.754-0.18,1.32-0.54,1.695
		c-0.359,0.377-0.826,0.566-1.398,0.566c-0.54,0-1.099-0.342-1.673-1.023c-0.717-0.826-1.56-2.352-2.529-4.577
		c-0.433-0.861-0.989-2.243-1.668-4.146c-0.829-2.296-1.384-3.841-1.673-4.629l-4.842,10.499c-0.826,1.795-1.329,2.799-1.512,3.016
		c-0.466,0.574-0.971,0.861-1.504,0.861c-0.647,0-1.133-0.145-1.456-0.432c-0.322-0.286-0.484-0.789-0.484-1.508
		c0-0.787,0.645-2.422,1.94-4.9c0.933-1.758,1.603-3.021,2.019-3.793c0.409-0.773,1.192-2.469,2.339-5.088
		c1.653-3.809,2.893-5.71,3.717-5.71c0.827,0,1.795,1.473,2.909,4.417c0.898,2.439,1.793,4.881,2.691,7.322
		c0.253,0.574,1.004,1.939,2.264,4.091C156.339,73.512,156.809,74.626,156.809,75.236L156.809,75.236z"/>
	<path fill-rule="evenodd" clip-rule="evenodd" fill="#010101" d="M176.475,76.26c0,0.682-0.229,1.283-0.674,1.803
		c-0.449,0.522-0.907,0.783-1.371,0.783c-0.936,0-1.801-1.133-2.587-3.393c-0.503-1.473-0.969-3.357-1.399-5.654
		c-1.147,1.759-2.622,3.444-4.417,5.063c-2.151,1.901-3.913,2.852-5.277,2.852c-1.004,0-1.867-0.43-2.582-1.293
		c-0.718-0.861-1.078-1.83-1.078-2.908c0-2.619,1.544-6.423,4.632-11.412c3.23-5.242,5.924-7.863,8.077-7.863
		c0.466,0,0.853,0.107,1.154,0.324c0.306,0.215,0.464,0.575,0.464,1.076c0,0.575-0.58,1.437-1.728,2.586
		c-1.938,1.938-3.16,3.229-3.662,3.877c-1.186,1.471-2.344,3.391-3.47,5.76c-1.133,2.369-1.696,3.895-1.696,4.577
		c0,0.43,0.042,0.72,0.133,0.862c0.089,0.142,0.334,0.213,0.728,0.213c0.861,0,2.395-1.155,4.605-3.473
		c2.204-2.314,3.308-3.742,3.308-4.279c0-0.609,0.259-1.076,0.78-1.4c0.521-0.322,0.979-0.484,1.373-0.484
		c0.325,0,0.681,0.152,1.078,0.459c0.396,0.305,0.646,0.734,0.755,1.291c0.107,0.557,0.296,1.41,0.563,2.556
		c0.27,1.151,0.513,2.094,0.729,2.831c0.216,0.734,0.574,1.874,1.078,3.418C176.314,75.396,176.475,76.009,176.475,76.26
		L176.475,76.26z"/>
	<path fill-rule="evenodd" clip-rule="evenodd" fill="#010101" d="M198.508,75.021c0,0.753-0.18,1.318-0.538,1.694
		c-0.358,0.377-0.823,0.567-1.399,0.567c-0.827,0-1.527-0.736-2.099-2.209c-0.216-0.609-0.521-1.563-0.916-2.853l-0.97-3.661h-8.185
		c0.216,2.439,0.358,3.965,0.431,4.576c0.073,0.609,0.109,1.021,0.109,1.237c0,0.827-0.245,1.517-0.728,2.075
		c-0.485,0.554-1.104,0.834-1.856,0.834c-0.827,0-1.384-0.494-1.671-1.482c-0.288-0.986-0.428-2.305-0.428-3.958
		c0-0.538,0-1.085,0-1.641s0.013-1.12,0.053-1.697c-0.684-0.073-1.232-0.224-1.644-0.456c-0.413-0.235-0.622-0.602-0.622-1.104
		c0-0.574,0.18-1.016,0.538-1.32c0.362-0.304,0.864-0.512,1.509-0.617c-0.07-0.862-0.192-2.129-0.372-3.799
		c-0.179-1.668-0.272-2.811-0.272-3.418c0-0.396,0.196-0.727,0.592-0.996c0.394-0.27,0.77-0.404,1.132-0.404
		c0.966,0,1.74,0.952,2.316,2.854c0.468,1.58,0.696,3.393,0.696,5.439h7.65l-0.109-1.508v-2.208c0-1.474,0.109-2.603,0.322-3.394
		c0.216-0.789,0.722-1.184,1.508-1.184c0.971,0,1.65,1.311,2.044,3.932c0.144,0.861,0.323,2.332,0.54,4.415
		c0.61,0.107,1.087,0.286,1.429,0.539c0.342,0.251,0.507,0.575,0.507,0.968c0,0.359-0.121,0.683-0.374,0.971
		c-0.253,0.285-0.611,0.536-1.076,0.754c0.178,0.824,0.538,2.09,1.076,3.795C198.243,73.469,198.508,74.554,198.508,75.021
		L198.508,75.021z"/>
	<path fill-rule="evenodd" clip-rule="evenodd" fill="#010101" d="M227.547,75.666c0,0.504-0.162,0.952-0.485,1.347
		c-0.321,0.396-0.773,0.593-1.344,0.593c-0.938,0-1.961-1.041-3.069-3.123c-0.074-0.108-0.632-1.256-1.671-3.446
		c-0.538-1.29-1.077-2.584-1.615-3.877c-1.115,2.944-2.099,5.366-2.958,7.271c-0.864,1.9-1.639,2.854-2.323,2.854
		c-0.824,0-1.773-1.957-2.849-5.869c-1.078-3.914-1.773-5.871-2.101-5.871c-0.468,0-1.095,2.208-1.886,6.624
		c-0.787,4.415-1.704,6.624-2.748,6.624c-0.647,0-1.145-0.287-1.503-0.862s-0.54-1.759-0.54-3.555c0-0.896-0.063-2.036-0.189-3.418
		c-0.124-1.384-0.388-3.509-0.784-6.381c-0.247-1.579-0.454-2.97-0.616-4.173c-0.16-1.203-0.243-2.107-0.243-2.719
		c0-1.364,0.612-2.047,1.833-2.047c0.967,0,1.737,1.545,2.313,4.631c0.216,1.221,0.484,2.979,0.81,5.275
		c0.467-1.146,0.951-2.314,1.452-3.499c0.723-1.471,1.42-2.208,2.103-2.208c1.11,0,2.189,1.223,3.229,3.663
		c0.792,2.011,1.581,4.02,2.367,6.03c0.683-1.974,1.382-3.949,2.104-5.924c1.04-2.439,2.046-3.66,3.012-3.66
		c0.935,0,1.905,1.58,2.911,4.738c0.647,2.01,1.167,3.409,1.558,4.2c0.725,1.364,1.442,2.728,2.155,4.093
		C227.185,74.34,227.547,75.236,227.547,75.666L227.547,75.666z"/>
	<path fill-rule="evenodd" clip-rule="evenodd" fill="#010101" d="M269.846,69.852c0,2.872-2.01,5.223-6.032,7.055
		c-2.906,1.328-5.242,1.992-6.999,1.992c-0.542,0-0.807-0.449-0.807-1.347c0-0.18,1.505-1.201,4.521-3.069
		c3.014-1.867,4.521-3.248,4.521-4.147c0-1.253-0.204-2.044-0.619-2.366c-0.413-0.324-1.656-0.486-3.74-0.486h-3.339
		c-0.432,0-0.816-0.125-1.161-0.376c-0.337-0.251-0.51-0.61-0.51-1.075c0-0.325,0.548-1.511,1.646-3.557
		c1.091-2.046,1.64-3.283,1.64-3.715c0-0.465-0.096-0.752-0.294-0.861c-0.196-0.107-0.565-0.16-1.107-0.16
		c-0.608,0-1.378,0.287-2.311,0.859c-0.938,0.575-1.492,0.916-1.672,1.023c0.143,0.717,0.278,1.645,0.404,2.773
		c0.129,1.131,0.243,2.181,0.349,3.148c0.396,3.52,0.64,5.699,0.728,6.545c0.091,0.842,0.133,1.642,0.133,2.395
		c0,1.473-0.104,2.576-0.323,3.312c-0.214,0.735-0.643,1.104-1.29,1.104c-0.644,0-1.15-0.287-1.508-0.864
		c-0.355-0.572-0.534-1.757-0.534-3.552c0-0.896-0.067-2.038-0.193-3.42c-0.123-1.381-0.386-3.507-0.781-6.379
		c-0.249-1.58-0.458-2.972-0.618-4.174c-0.163-1.202-0.241-2.111-0.241-2.719c0-1.363,0.61-2.046,1.834-2.046
		c0.464,0,0.877,0.341,1.235,1.023c2.69-1.614,4.755-2.425,6.19-2.425c1.472,0,2.647,0.207,3.528,0.619
		c0.879,0.414,1.318,0.889,1.318,1.428c0,1.115-0.503,2.559-1.509,4.335c-1.006,1.778-1.978,3.097-2.906,3.958h2.205
		c1.255,0,2.39,0.063,3.395,0.188c1.009,0.127,1.814,0.387,2.423,0.781c0.858,0.573,1.482,1.203,1.859,1.885
		C269.652,68.219,269.846,68.99,269.846,69.852L269.846,69.852z"/>
	<path fill-rule="evenodd" clip-rule="evenodd" fill="#010101" d="M117.983,47.02c-0.219,0.074-0.453,0.148-0.697,0.218
		c-0.357,0.108-2.549,0.646-6.567,1.614c0,1.902,0.232,5.08,0.698,9.533c0.252,2.402,0.379,4.18,0.379,5.329
		c0,1.506,0.124,3.284,0.377,5.329c0.25,2.048,0.52,4.184,0.807,6.41c0,0.858-0.117,1.453-0.352,1.777
		c-0.231,0.321-0.727,0.482-1.479,0.482c-1.148,0-1.959-1.203-2.424-3.607c-0.107-0.538-0.35-2.703-0.727-6.486
		c-0.377-3.789-0.656-6.704-0.836-8.75c-0.357-3.771-0.537-6.678-0.537-8.725c-3.877,1.113-5.961,1.704-6.246,1.777
		c-0.021,0.006-0.041,0.012-0.063,0.017c0.287,0.979,0.43,1.628,0.43,1.948c0,0.67-0.16,1.172-0.477,1.505
		c-0.319,0.335-0.733,0.501-1.242,0.501c-0.732,0-1.354-0.651-1.864-1.959c-1.224-3.467-2.728-3.882,1.978-5.89
		c1.004-0.431,3.032-1.112,6.083-2.046c1.761-0.575,4.319-1.267,7.675-2.072c3.296-0.795,5.25-1.198,5.862-1.211
		c2.848-0.396,3.498,2.164,3.498,4.948c0,0.751-0.183,1.315-0.54,1.695c-0.361,0.375-0.826,0.564-1.4,0.564
		c-0.826,0-1.525-0.735-2.101-2.207C118.149,47.521,118.073,47.287,117.983,47.02L117.983,47.02z"/>
</g>
<g>
	<g>
		<path fill-rule="evenodd" clip-rule="evenodd" fill="#76B843" d="M29.843,65.057l13.936-23.542l4.01,2.262l19.664,11.639
			c2.179,1.289,2.904,4.128,1.617,6.306L57.429,81.385c-1.289,2.179-4.125,2.906-6.305,1.619l-6.473-3.832
			c0.906-0.055,1.816-0.336,2.713-0.91c2.308-1.478,2.385-3.869,2.354-6.287c0.41,0.368,0.893,0.69,1.459,0.952
			c2.017,0.933,3.752,0.306,5.416-0.673c1.184-0.699,2.262-1.459,3.277-2.387c0.686-0.627,1.338-1.262,1.851-1.953
			c1.598-2.154,2.789-4.922,3.696-7.417c0.202-0.485,0.409-0.97,0.602-1.447c0.019-0.136,0.019-0.136-0.03-0.211
			c-0.492,0.031-0.492,0.031-0.747,0.106c-5.174,0.046-9.181-2.618-12.01-6.752c-1.467,0.886-3.824,6.258-4.178,7.314
			c-0.518,1.551-1.006,3.34-1.23,5.115c-0.946-1.781-2.061-3.457-3.281-5.049c-0.299-0.434-0.598-0.867-0.896-1.285
			C43.542,58.2,43.542,58.2,43.451,58.2c-0.238,0.433-0.238,0.433-0.312,0.687c-2.742,4.389-7.145,6.332-12.152,6.492
			c-0.016,0.784,0.701,2.258,1.338,3.426c0.609,1.119,1.359,2.473,2.133,3.463c0.427,0.547,0.898,1.126,1.412,1.705
			c-1.471-0.869-2.939-1.739-4.41-2.609C29.279,70.074,28.554,67.236,29.843,65.057L29.843,65.057z M61.581,64.502
			c-0.014-0.046-0.037-0.084-0.069-0.135c-0.269,0.05-0.542,0.096-0.811,0.146c-0.686,0.024-1.247-0.034-1.757-0.218
			c-0.512-0.182-0.976-0.484-1.466-0.949c-0.05,0.033-0.101,0.064-0.172,0.093c0.064,0.577,0.282,1.107,0.562,1.571
			c0.298,0.489,0.699,0.779,1.152,0.859c0.441,0.078,0.875-0.024,1.273-0.253C60.788,65.332,61.233,64.868,61.581,64.502
			L61.581,64.502z M51.021,66.157c-0.321,0.329-1.138,1.079-0.854,1.519c1.294-0.546,2.254-0.627,3.277-0.115
			c1.02,0.507,1.506,1.287,1.805,2.398c-0.055,0.246,0.008,0.508,0.089,0.721c0.839-0.676,0.991-1.603,0.757-2.481
			c-0.238-0.88-0.86-1.716-1.566-2.209C53.595,65.337,52.462,65.238,51.021,66.157L51.021,66.157z M52.529,62.336
			c0.435,0.111,0.839,0.09,1.229,0.035c0.344-0.184,1.066-0.271,1.175-0.519c-0.036-0.029-0.073-0.06-0.118-0.102
			c-0.649-0.083-1.14-0.302-1.566-0.62c-0.375-0.28-0.702-0.635-1.05-1.039c-0.173-0.297-0.345-0.596-0.517-0.893
			c-0.508,0.324-0.456,1.548-0.005,2.375C51.886,61.949,52.175,62.244,52.529,62.336L52.529,62.336z"/>
		<path fill-rule="evenodd" clip-rule="evenodd" fill="#76B843" d="M46.198,71.409c-0.236,1.388-0.682,2.237-1.668,2.827
			c-0.975,0.586-1.893,0.578-2.988,0.232c-0.18-0.179-0.434-0.269-0.656-0.313c0.059,0.537,0.551,1.223,0.983,1.596
			c0.388,0.226,0.851,0.465,1.196,0.6c0.818,0,1.58-0.095,2.211-0.356c0.855-0.354,1.471-1.017,1.673-2.169
			C47.048,73.248,46.977,71.409,46.198,71.409L46.198,71.409z"/>
		<path fill-rule="evenodd" clip-rule="evenodd" fill="#76B843" d="M40.048,69.141c-0.119,0.154-0.776,0.667-1.217,0.9
			c-0.229,0.122-0.471,0.219-0.709,0.283c-0.717,0.192-1.336,0.162-2.059,0.129c0,0.327,0.508,0.775,1.072,1.035
			c0.469,0.215,0.981,0.275,1.248,0.259c0.529-0.03,1.078-0.442,1.334-0.88C40.056,70.277,40.247,69.439,40.048,69.141
			L40.048,69.141z"/>
		<path fill-rule="evenodd" clip-rule="evenodd" fill="#76B843" d="M46.079,66.781c-0.014-0.371-0.03-0.73-0.045-1.088
			c-0.06-0.253-0.117-0.493-0.178-0.732c-0.047-0.014-0.09-0.014-0.15-0.014c-0.104,0.253-0.209,0.508-0.313,0.76
			c-0.3,0.509-0.793,1.315-1.494,1.613c-0.163,0.164-0.865,0.388-1.222,0.477c0,0.059,0,0.12-0.018,0.193
			c0.38,0.188,0.801,0.416,1.21,0.449c0.6,0.049,1.148-0.08,1.551-0.394C45.774,67.77,46.017,67.35,46.079,66.781L46.079,66.781z"/>
	</g>
	<g>
		<path fill-rule="evenodd" clip-rule="evenodd" fill="#4B86C6" d="M37.362,37.717L18.074,26.3
			c-2.138-1.265-4.925-0.551-6.186,1.587l-5.437,9.18c0.523,0.086,1.139,0.187,1.868,0.306c1.745,0.194,6.081,0.852,6.761,0.852
			s0.68,0.68,0.68,0.68v11.564c0.578-0.201,1.215-0.132,1.751-0.053c1.171,0.319,2.309,1.036,2.681,2.231
			c0,0.406,0.041,0.903-0.43,1.181c0,0.008,0,0.025,0,0.042c-0.313,0.187-0.581,0.327-1.027,0.413
			c-0.229-0.009-0.465-0.017-0.701-0.017c-1.27-0.151-2.683-1.063-2.953-2.454c-0.007-3.977,0-7.473,0-11.55
			c0-0.679-0.646-0.652-0.68-0.679c-1.197-0.192-6.721-0.82-8.498-1.107c-0.068-0.008-0.158-0.021-0.262-0.036l-1.43,2.415v7.791
			c0.486-0.189,1.064-0.135,1.506-0.135c0.211,0.043,0.42,0.093,0.623,0.143c1.002,0.406,1.785,0.878,2.273,1.864
			c0.127,0.411,0.119,0.647-0.023,1.118c-0.043,0.069-0.086,0.135-0.135,0.203c-0.53,0.53-1.08,0.6-1.855,0.6
			c-0.218-0.043-0.444-0.088-0.672-0.119c-0.296-0.119-0.6-0.228-0.9-0.338c-0.053-0.169-0.86-0.404-0.86-0.631
			c-0.424-0.313-0.56-1.115-0.636-1.576c0-2.609,0-4.867,0-7.475l-3.061,4.875c-1.265,2.135-0.553,4.918,1.586,6.186l19.289,11.415
			c2.139,1.266,4.919,0.552,6.184-1.586l5.769-9.745c-0.36,0.178-0.804,0.291-1.3,0.369c-0.185-0.014-0.367-0.028-0.566-0.028
			c-1.429-0.169-2.477-0.565-3.664-1.47c-0.609-0.608-1.066-1.071-1.138-1.863c0-3.876,0-7.473,0-11.549
			c-0.792-0.126-2.004,0.407-2.753,0.817c-1.092,0.778-1.756,1.57-2.236,2.972c-0.213,1.003-0.156,1.683,0.029,2.773
			c0.169,0.424,0.338,0.862,0.494,1.303c0.963,1.811,0.963,1.811,0.963,1.883c-0.27,0-0.342,0.025-0.566-0.201
			c-0.537-0.891-1.035-1.782-1.415-2.687c-0.284-0.907-0.481-1.784-0.524-2.634c0.129-1.245,0.511-1.965,1.049-2.886
			c0.268-0.31,0.536-0.621,0.805-0.919c1.571-1.416,3.255-2.618,3.977-4.484c0.155-0.651,0.155-0.651,0.324-1.714
			c0.214-0.014,0.533,0.242,0.533,0.342c0,5.435,0,10.333,0,15.626c0.68-0.54,2.057-0.443,2.721-0.443
			c0.355,0.068,0.709,0.153,1.049,0.239c1.443,0.603,2.814,1.29,3.199,2.899L41.2,40.098L37.362,37.717z"/>
		
			<ellipse transform="matrix(0.3469 -0.9379 0.9379 0.3469 -28.0074 62.2362)" fill-rule="evenodd" clip-rule="evenodd" fill="#4B86C6" cx="30.687" cy="51.229" rx="1.461" ry="2.812"/>
	</g>
	<g>
		<path fill-rule="evenodd" clip-rule="evenodd" fill="#F8B916" d="M28.974,14.457l-1.322,3.096
			c-0.352,1.02-0.087,1.371,0.926,0.919l3.139-1.684l2.401,1.625c0.833,0.454,1.313,0.245,1.373-0.773l-0.095-3.183l2.808-2.091
			c0.865-0.738,0.897-1.221-0.078-1.397l-3.196-0.284l-0.666-2.917c-0.299-0.91-0.76-0.999-1.422-0.09l-1.883,3.006l-3.217,0.29
			c-1.051,0.174-1.369,0.603-0.802,1.339L28.974,14.457z"/>
		<path fill-rule="evenodd" clip-rule="evenodd" fill="#F8B916" d="M51.813,9.735L36.511,0.677
			c-1.695-1.005-3.904-0.436-4.908,1.259l-4.342,7.335l3.607-0.326l3.12-4.989c1.1-1.503,1.864-1.36,2.356,0.151l1.107,4.838
			l5.301,0.474c1.619,0.29,1.567,1.089,0.131,2.313l-4.658,3.472l0.155,5.281c-0.097,1.685-0.896,2.033-2.275,1.281l-3.981-2.694
			l-5.207,2.79c-1.681,0.753-2.117,0.167-1.537-1.522l2.197-5.134l-2.358-2.485l-2.672,4.517c-1.007,1.697-0.437,3.905,1.258,4.909
			l15.302,9.057l3.121,1.76l10.844-18.323C54.076,12.946,53.511,10.739,51.813,9.735z"/>
	</g>
	<g>
		<path fill-rule="evenodd" clip-rule="evenodd" fill="#E01E26" d="M68.966,24.29c0.046-0.169,0.093-0.339,0.133-0.514
			C69.044,23.914,69.001,24.093,68.966,24.29z"/>
		<path fill-rule="evenodd" clip-rule="evenodd" fill="#E01E26" d="M68.966,24.29c-0.904,3.274-2.967,5.647-1.522,8.927
			c0.586,0.203,1.612,0.255,2.27-0.065C69.216,31.809,68.568,26.441,68.966,24.29z"/>
		<path fill-rule="evenodd" clip-rule="evenodd" fill="#E01E26" d="M85.908,24.23L66.245,12.592
			c-2.178-1.289-5.018-0.563-6.307,1.617L46.004,37.751l3.913,2.427l1.35,0.797c0.068-0.333,0.188-0.662,0.356-0.977
			c0.948-1.75,3.134-2.401,4.884-1.455c1.749,0.947,2.4,3.135,1.454,4.884c-0.218,0.401-0.498,0.745-0.826,1.023l10.75,6.361
			c-0.31-5.46-0.453-10.96-1.317-16.255c1.933,0.475,4.134,0.394,5.168,0.224c-0.459,5.852-0.48,11.677-0.438,17.632
			c1.779,0.24,3.62-0.576,4.59-2.214l11.639-19.663C88.815,28.357,88.088,25.518,85.908,24.23z M60.575,34.485
			c-0.945,1.751-3.131,2.402-4.881,1.455c-1.75-0.946-2.403-3.132-1.455-4.881c0.945-1.752,3.132-2.402,4.883-1.457
			C60.872,30.551,61.522,32.737,60.575,34.485z M61.003,27.392c-1.75-0.947-2.403-3.132-1.455-4.883
			c0.436-0.804,1.137-1.363,1.933-1.654c-0.195,0.198-0.376,0.417-0.517,0.673c-0.796,1.47-0.248,3.308,1.221,4.102
			c1.472,0.796,3.309,0.248,4.104-1.221c0.006-0.012,0.008-0.026,0.016-0.039c-0.021,0.532-0.148,1.067-0.418,1.566
			C64.938,27.688,62.751,28.339,61.003,27.392z M71.3,33.811c-1.396,0.281-2.795,0.234-4.2-0.211
			c-0.563-1.121-1.134-2.399-1.199-3.581c0.292-2.967,2.862-5.054,3.482-8.016c0.544,3.319,3.575,5.49,3.671,8.452
			C73.083,31.229,72.207,32.836,71.3,33.811z"/>
	</g>
</g>
</svg>
